<svg xmlns="http://www.w3.org/2000/svg" width="755" height="126" viewBox="0 0 755 126" font-family="Consolas, 'Cascadia Mono', 'Malgun Gothic', monospace">
<title>헤더에서 잘못 적기 쉬운 3가지</title>
<rect x="0" y="0" width="453.5" height="118" fill="#FFFFFF"/>
<rect x="0" y="0" width="452.5" height="22" fill="#E9ECEF"/>
<rect x="0" y="0" width="30" height="118" fill="#E9ECEF"/>
<rect x="30" y="22" width="422.5" height="24" fill="#E3EDF8"/>
<rect x="30" y="46" width="422.5" height="24" fill="#F1F6FB"/>
<rect x="30" y="70" width="422.5" height="24" fill="#F1F6FB"/>
<rect x="353.875" y="70" width="98.625" height="24" fill="#FBEAE8"/>
<rect x="170.1875" y="46" width="86.625" height="24" fill="#FBEAE8"/>
<rect x="256.8125" y="46" width="97.0625" height="24" fill="#FBEAE8"/>
<line x1="30" y1="22" x2="30" y2="118" stroke="#D8DDE2" stroke-width="1"/>
<line x1="118.1875" y1="22" x2="118.1875" y2="118" stroke="#D8DDE2" stroke-width="1"/>
<line x1="170.1875" y1="22" x2="170.1875" y2="118" stroke="#D8DDE2" stroke-width="1"/>
<line x1="256.8125" y1="22" x2="256.8125" y2="118" stroke="#D8DDE2" stroke-width="1"/>
<line x1="353.875" y1="22" x2="353.875" y2="118" stroke="#D8DDE2" stroke-width="1"/>
<line x1="452.5" y1="22" x2="452.5" y2="118" stroke="#D8DDE2" stroke-width="1"/>
<line x1="30" y1="22" x2="452.5" y2="22" stroke="#D8DDE2" stroke-width="1"/>
<line x1="30" y1="46" x2="452.5" y2="46" stroke="#D8DDE2" stroke-width="1"/>
<line x1="30" y1="70" x2="452.5" y2="70" stroke="#D8DDE2" stroke-width="1"/>
<line x1="30" y1="94" x2="452.5" y2="94" stroke="#D8DDE2" stroke-width="1"/>
<line x1="30" y1="118" x2="452.5" y2="118" stroke="#D8DDE2" stroke-width="1"/>
<line x1="0" y1="22" x2="452.5" y2="22" stroke="#BFC6CC" stroke-width="1"/>
<line x1="30" y1="0" x2="30" y2="118" stroke="#BFC6CC" stroke-width="1"/>
<line x1="118.1875" y1="0" x2="118.1875" y2="22" stroke="#BFC6CC" stroke-width="1"/>
<line x1="170.1875" y1="0" x2="170.1875" y2="22" stroke="#BFC6CC" stroke-width="1"/>
<line x1="256.8125" y1="0" x2="256.8125" y2="22" stroke="#BFC6CC" stroke-width="1"/>
<line x1="353.875" y1="0" x2="353.875" y2="22" stroke="#BFC6CC" stroke-width="1"/>
<line x1="452.5" y1="0" x2="452.5" y2="22" stroke="#BFC6CC" stroke-width="1"/>
<line x1="0" y1="46" x2="30" y2="46" stroke="#BFC6CC" stroke-width="1"/>
<line x1="0" y1="70" x2="30" y2="70" stroke="#BFC6CC" stroke-width="1"/>
<line x1="0" y1="94" x2="30" y2="94" stroke="#BFC6CC" stroke-width="1"/>
<line x1="0" y1="118" x2="30" y2="118" stroke="#BFC6CC" stroke-width="1"/>
<rect x="0.5" y="0.5" width="452.0" height="117.5" fill="none" stroke="#BFC6CC" stroke-width="1"/>
<rect x="354.625" y="70.75" width="97.125" height="22.5" fill="none" stroke="#D64541" stroke-width="1.5"/>
<rect x="170.9375" y="46.75" width="85.125" height="22.5" fill="none" stroke="#D64541" stroke-width="1.5"/>
<rect x="257.5625" y="46.75" width="95.5625" height="22.5" fill="none" stroke="#D64541" stroke-width="1.5"/>
<text x="74.1" y="14.8" font-size="10.5" fill="#5B6570" text-anchor="middle">A</text>
<text x="144.2" y="14.8" font-size="10.5" fill="#5B6570" text-anchor="middle">B</text>
<text x="213.5" y="14.8" font-size="10.5" fill="#5B6570" text-anchor="middle">C</text>
<text x="305.3" y="14.8" font-size="10.5" fill="#5B6570" text-anchor="middle">D</text>
<text x="403.2" y="14.8" font-size="10.5" fill="#5B6570" text-anchor="middle">E</text>
<text x="15.0" y="37.8" font-size="10.5" fill="#5B6570" text-anchor="middle">1</text>
<text x="15.0" y="61.8" font-size="10.5" fill="#5B6570" text-anchor="middle">2</text>
<text x="15.0" y="85.8" font-size="10.5" fill="#5B6570" text-anchor="middle">3</text>
<text x="15.0" y="109.8" font-size="10.5" fill="#5B6570" text-anchor="middle">4</text>
<text x="37" y="38.5" font-size="12.5" fill="#1A5FA8" font-weight="bold">:table Item</text>
<text x="125.1875" y="38.5" font-size="12.5" fill="#1F2328">잘못 적은 헤더입니다 — 그대로 쓰지 마십시오.</text>
<text x="37" y="62.5" font-size="12.5" fill="#1A5FA8">:field</text>
<text x="125.1875" y="62.5" font-size="12.5" fill="#1F2328">id</text>
<text x="177.1875" y="62.5" font-size="12.5" fill="#B03A2E">slots[1].id</text>
<text x="263.8125" y="62.5" font-size="12.5" fill="#B03A2E">*drops[].id</text>
<text x="360.875" y="62.5" font-size="12.5" fill="#1F2328">name</text>
<text x="37" y="86.5" font-size="12.5" fill="#1A5FA8">:type</text>
<text x="125.1875" y="86.5" font-size="12.5" fill="#1F2328">int</text>
<text x="177.1875" y="86.5" font-size="12.5" fill="#1F2328">int</text>
<text x="263.8125" y="86.5" font-size="12.5" fill="#1F2328">foreign Item</text>
<text x="360.875" y="86.5" font-size="12.5" fill="#B03A2E">text(Common)</text>
<text x="125.1875" y="110.5" font-size="12.5" fill="#1F2328">1</text>
<text x="177.1875" y="110.5" font-size="12.5" fill="#1F2328">5001</text>
<text x="263.8125" y="110.5" font-size="12.5" fill="#1F2328">1001</text>
<text x="360.875" y="110.5" font-size="12.5" fill="#1F2328">검</text>
<text x="462.5" y="62.0" font-size="11" fill="#B03A2E" font-style="italic">◀ ✗ C — [0] 없이 [1]부터 · D — 배열 컬럼의 *</text>
<text x="462.5" y="86.0" font-size="11" fill="#B03A2E" font-style="italic">◀ ✗ E — 옛 표기. string (text=Common)으로</text>
</svg>