<svg xmlns="http://www.w3.org/2000/svg" width="773" height="222" viewBox="0 0 773 222" font-family="Consolas, 'Cascadia Mono', 'Malgun Gothic', monospace">
<title>테이블 Drop</title>
<rect x="0" y="0" width="556.0" height="214" fill="#FFFFFF"/>
<rect x="0" y="0" width="555.0" height="22" fill="#E9ECEF"/>
<rect x="0" y="0" width="30" height="214" fill="#E9ECEF"/>
<rect x="30" y="22" width="525.0" height="24" fill="#E3EDF8"/>
<rect x="30" y="46" width="525.0" height="24" fill="#F1F6FB"/>
<rect x="30" y="70" width="525.0" height="24" fill="#F1F6FB"/>
<rect x="30" y="94" width="525.0" height="24" fill="#F1F6FB"/>
<rect x="30" y="118" width="525.0" height="24" fill="#F1F6FB"/>
<line x1="30" y1="22" x2="30" y2="214" stroke="#D8DDE2" stroke-width="1"/>
<line x1="119.75" y1="22" x2="119.75" y2="214" stroke="#D8DDE2" stroke-width="1"/>
<line x1="224.125" y1="22" x2="224.125" y2="214" stroke="#D8DDE2" stroke-width="1"/>
<line x1="331.625" y1="22" x2="331.625" y2="214" stroke="#D8DDE2" stroke-width="1"/>
<line x1="457.9375" y1="22" x2="457.9375" y2="214" stroke="#D8DDE2" stroke-width="1"/>
<line x1="555.0" y1="22" x2="555.0" y2="214" stroke="#D8DDE2" stroke-width="1"/>
<line x1="30" y1="22" x2="555.0" y2="22" stroke="#D8DDE2" stroke-width="1"/>
<line x1="30" y1="46" x2="555.0" y2="46" stroke="#D8DDE2" stroke-width="1"/>
<line x1="30" y1="70" x2="555.0" y2="70" stroke="#D8DDE2" stroke-width="1"/>
<line x1="30" y1="94" x2="555.0" y2="94" stroke="#D8DDE2" stroke-width="1"/>
<line x1="30" y1="118" x2="555.0" y2="118" stroke="#D8DDE2" stroke-width="1"/>
<line x1="30" y1="142" x2="555.0" y2="142" stroke="#D8DDE2" stroke-width="1"/>
<line x1="30" y1="166" x2="555.0" y2="166" stroke="#D8DDE2" stroke-width="1"/>
<line x1="30" y1="190" x2="555.0" y2="190" stroke="#D8DDE2" stroke-width="1"/>
<line x1="30" y1="214" x2="555.0" y2="214" stroke="#D8DDE2" stroke-width="1"/>
<line x1="0" y1="22" x2="555.0" y2="22" stroke="#BFC6CC" stroke-width="1"/>
<line x1="30" y1="0" x2="30" y2="214" stroke="#BFC6CC" stroke-width="1"/>
<line x1="119.75" y1="0" x2="119.75" y2="22" stroke="#BFC6CC" stroke-width="1"/>
<line x1="224.125" y1="0" x2="224.125" y2="22" stroke="#BFC6CC" stroke-width="1"/>
<line x1="331.625" y1="0" x2="331.625" y2="22" stroke="#BFC6CC" stroke-width="1"/>
<line x1="457.9375" y1="0" x2="457.9375" y2="22" stroke="#BFC6CC" stroke-width="1"/>
<line x1="555.0" y1="0" x2="555.0" y2="22" stroke="#BFC6CC" stroke-width="1"/>
<line x1="0" y1="46" x2="30" y2="46" stroke="#BFC6CC" stroke-width="1"/>
<line x1="0" y1="70" x2="30" y2="70" stroke="#BFC6CC" stroke-width="1"/>
<line x1="0" y1="94" x2="30" y2="94" stroke="#BFC6CC" stroke-width="1"/>
<line x1="0" y1="118" x2="30" y2="118" stroke="#BFC6CC" stroke-width="1"/>
<line x1="0" y1="142" x2="30" y2="142" stroke="#BFC6CC" stroke-width="1"/>
<line x1="0" y1="166" x2="30" y2="166" stroke="#BFC6CC" stroke-width="1"/>
<line x1="0" y1="190" x2="30" y2="190" stroke="#BFC6CC" stroke-width="1"/>
<line x1="0" y1="214" x2="30" y2="214" stroke="#BFC6CC" stroke-width="1"/>
<rect x="0.5" y="0.5" width="554.5" height="213.5" fill="none" stroke="#BFC6CC" stroke-width="1"/>
<text x="74.9" y="14.8" font-size="10.5" fill="#5B6570" text-anchor="middle">A</text>
<text x="171.9" y="14.8" font-size="10.5" fill="#5B6570" text-anchor="middle">B</text>
<text x="277.9" y="14.8" font-size="10.5" fill="#5B6570" text-anchor="middle">C</text>
<text x="394.8" y="14.8" font-size="10.5" fill="#5B6570" text-anchor="middle">D</text>
<text x="506.5" y="14.8" font-size="10.5" fill="#5B6570" text-anchor="middle">E</text>
<text x="15.0" y="37.8" font-size="10.5" fill="#5B6570" text-anchor="middle">1</text>
<text x="15.0" y="61.8" font-size="10.5" fill="#5B6570" text-anchor="middle">2</text>
<text x="15.0" y="85.8" font-size="10.5" fill="#5B6570" text-anchor="middle">3</text>
<text x="15.0" y="109.8" font-size="10.5" fill="#5B6570" text-anchor="middle">4</text>
<text x="15.0" y="133.8" font-size="10.5" fill="#5B6570" text-anchor="middle">5</text>
<text x="15.0" y="157.8" font-size="10.5" fill="#5B6570" text-anchor="middle">6</text>
<text x="15.0" y="181.8" font-size="10.5" fill="#5B6570" text-anchor="middle">7</text>
<text x="15.0" y="205.8" font-size="10.5" fill="#5B6570" text-anchor="middle">8</text>
<text x="37" y="38.5" font-size="12.5" fill="#1A5FA8" font-weight="bold">:table Drop</text>
<text x="126.75" y="38.5" font-size="12.5" fill="#1F2328">An array of enums, and one whose elements may be absent.</text>
<text x="37" y="62.5" font-size="12.5" fill="#1A5FA8">:field</text>
<text x="126.75" y="62.5" font-size="12.5" fill="#1F2328">index</text>
<text x="231.125" y="62.5" font-size="12.5" fill="#1F2328">Grades</text>
<text x="338.625" y="62.5" font-size="12.5" fill="#1F2328">Counts</text>
<text x="464.9375" y="62.5" font-size="12.5" fill="#C0392B" font-weight="bold">#</text>
<text x="37" y="86.5" font-size="12.5" fill="#1A5FA8">:type</text>
<text x="126.75" y="86.5" font-size="12.5" fill="#1F2328">int</text>
<text x="231.125" y="86.5" font-size="12.5" fill="#1F2328">Rarity[]</text>
<text x="338.625" y="86.5" font-size="12.5" fill="#1F2328">int?[]</text>
<text x="37" y="110.5" font-size="12.5" fill="#1A5FA8">:desc</text>
<text x="126.75" y="110.5" font-size="12.5" fill="#1F2328">primary index</text>
<text x="231.125" y="110.5" font-size="12.5" fill="#1F2328">which grades</text>
<text x="338.625" y="110.5" font-size="12.5" fill="#1F2328">how many of each</text>
<text x="37" y="134.5" font-size="12.5" fill="#1A5FA8">:target</text>
<text x="126.75" y="134.5" font-size="12.5" fill="#1F2328">cs</text>
<text x="231.125" y="134.5" font-size="12.5" fill="#1F2328">cs</text>
<text x="338.625" y="134.5" font-size="12.5" fill="#1F2328">cs</text>
<text x="126.75" y="158.5" font-size="12.5" fill="#1F2328">1</text>
<text x="231.125" y="158.5" font-size="12.5" fill="#1F2328">Common;Rare</text>
<text x="338.625" y="158.5" font-size="12.5" fill="#1F2328">1;2</text>
<text x="464.9375" y="158.5" font-size="12.5" fill="#1F2328">note to self</text>
<text x="126.75" y="182.5" font-size="12.5" fill="#1F2328">2</text>
<text x="231.125" y="182.5" font-size="12.5" fill="#1F2328">Epic</text>
<text x="338.625" y="182.5" font-size="12.5" fill="#1F2328">5</text>
<text x="464.9375" y="182.5" font-size="12.5" fill="#1F2328">note to self</text>
<text x="126.75" y="206.5" font-size="12.5" fill="#1F2328">3</text>
<text x="231.125" y="206.5" font-size="12.5" fill="#1F2328">Common;Common</text>
<text x="338.625" y="206.5" font-size="12.5" fill="#1F2328">3;-</text>
<text x="464.9375" y="206.5" font-size="12.5" fill="#1F2328">note to self</text>
<text x="565.0" y="62.0" font-size="11" fill="#8A929B" font-style="italic">◀ #만 적은 컬럼은 읽지 않습니다</text>
<text x="565.0" y="86.0" font-size="11" fill="#8A929B" font-style="italic">◀ 원소가 없을 수 있으면 int?[]</text>
<text x="565.0" y="206.0" font-size="11" fill="#8A929B" font-style="italic">◀ -는 그 원소가 없다는 뜻</text>
</svg>