<svg xmlns="http://www.w3.org/2000/svg" width="732" height="222" viewBox="0 0 732 222" font-family="Consolas, 'Cascadia Mono', 'Malgun Gothic', monospace">
<title>테이블 ServerTuning</title>
<rect x="0" y="0" width="548.0" height="214" fill="#FFFFFF"/>
<rect x="0" y="0" width="547.0" height="22" fill="#E9ECEF"/>
<rect x="0" y="0" width="30" height="214" fill="#E9ECEF"/>
<rect x="30" y="22" width="517.0" height="24" fill="#E3EDF8"/>
<rect x="30" y="46" width="517.0" height="24" fill="#F1F6FB"/>
<rect x="30" y="70" width="517.0" height="24" fill="#F1F6FB"/>
<rect x="30" y="94" width="517.0" height="24" fill="#F1F6FB"/>
<rect x="30" y="118" width="517.0" height="24" fill="#F1F6FB"/>
<line x1="30" y1="22" x2="30" y2="214" stroke="#D8DDE2" stroke-width="1"/>
<line x1="230.5" y1="22" x2="230.5" y2="214" stroke="#D8DDE2" stroke-width="1"/>
<line x1="334.875" y1="22" x2="334.875" y2="214" stroke="#D8DDE2" stroke-width="1"/>
<line x1="439.25" y1="22" x2="439.25" y2="214" stroke="#D8DDE2" stroke-width="1"/>
<line x1="547.0" y1="22" x2="547.0" y2="214" stroke="#D8DDE2" stroke-width="1"/>
<line x1="30" y1="22" x2="547.0" y2="22" stroke="#D8DDE2" stroke-width="1"/>
<line x1="30" y1="46" x2="547.0" y2="46" stroke="#D8DDE2" stroke-width="1"/>
<line x1="30" y1="70" x2="547.0" y2="70" stroke="#D8DDE2" stroke-width="1"/>
<line x1="30" y1="94" x2="547.0" y2="94" stroke="#D8DDE2" stroke-width="1"/>
<line x1="30" y1="118" x2="547.0" y2="118" stroke="#D8DDE2" stroke-width="1"/>
<line x1="30" y1="142" x2="547.0" y2="142" stroke="#D8DDE2" stroke-width="1"/>
<line x1="30" y1="166" x2="547.0" y2="166" stroke="#D8DDE2" stroke-width="1"/>
<line x1="30" y1="190" x2="547.0" y2="190" stroke="#D8DDE2" stroke-width="1"/>
<line x1="30" y1="214" x2="547.0" y2="214" stroke="#D8DDE2" stroke-width="1"/>
<line x1="0" y1="22" x2="547.0" y2="22" stroke="#BFC6CC" stroke-width="1"/>
<line x1="30" y1="0" x2="30" y2="214" stroke="#BFC6CC" stroke-width="1"/>
<line x1="230.5" y1="0" x2="230.5" y2="22" stroke="#BFC6CC" stroke-width="1"/>
<line x1="334.875" y1="0" x2="334.875" y2="22" stroke="#BFC6CC" stroke-width="1"/>
<line x1="439.25" y1="0" x2="439.25" y2="22" stroke="#BFC6CC" stroke-width="1"/>
<line x1="547.0" y1="0" x2="547.0" y2="22" stroke="#BFC6CC" stroke-width="1"/>
<line x1="0" y1="46" x2="30" y2="46" stroke="#BFC6CC" stroke-width="1"/>
<line x1="0" y1="70" x2="30" y2="70" stroke="#BFC6CC" stroke-width="1"/>
<line x1="0" y1="94" x2="30" y2="94" stroke="#BFC6CC" stroke-width="1"/>
<line x1="0" y1="118" x2="30" y2="118" stroke="#BFC6CC" stroke-width="1"/>
<line x1="0" y1="142" x2="30" y2="142" stroke="#BFC6CC" stroke-width="1"/>
<line x1="0" y1="166" x2="30" y2="166" stroke="#BFC6CC" stroke-width="1"/>
<line x1="0" y1="190" x2="30" y2="190" stroke="#BFC6CC" stroke-width="1"/>
<line x1="0" y1="214" x2="30" y2="214" stroke="#BFC6CC" stroke-width="1"/>
<rect x="0.5" y="0.5" width="546.5" height="213.5" fill="none" stroke="#BFC6CC" stroke-width="1"/>
<text x="130.2" y="14.8" font-size="10.5" fill="#5B6570" text-anchor="middle">A</text>
<text x="282.7" y="14.8" font-size="10.5" fill="#5B6570" text-anchor="middle">B</text>
<text x="387.1" y="14.8" font-size="10.5" fill="#5B6570" text-anchor="middle">C</text>
<text x="493.1" y="14.8" font-size="10.5" fill="#5B6570" text-anchor="middle">D</text>
<text x="15.0" y="37.8" font-size="10.5" fill="#5B6570" text-anchor="middle">1</text>
<text x="15.0" y="61.8" font-size="10.5" fill="#5B6570" text-anchor="middle">2</text>
<text x="15.0" y="85.8" font-size="10.5" fill="#5B6570" text-anchor="middle">3</text>
<text x="15.0" y="109.8" font-size="10.5" fill="#5B6570" text-anchor="middle">4</text>
<text x="15.0" y="133.8" font-size="10.5" fill="#5B6570" text-anchor="middle">5</text>
<text x="15.0" y="157.8" font-size="10.5" fill="#5B6570" text-anchor="middle">6</text>
<text x="15.0" y="181.8" font-size="10.5" fill="#5B6570" text-anchor="middle">7</text>
<text x="15.0" y="205.8" font-size="10.5" fill="#5B6570" text-anchor="middle">8</text>
<text x="37" y="38.5" font-size="12.5" fill="#1A5FA8" font-weight="bold">:table ServerTuning(side=s)</text>
<text x="237.5" y="38.5" font-size="12.5" fill="#1F2328">The client build has no type for this at all.</text>
<text x="37" y="62.5" font-size="12.5" fill="#1A5FA8">:field</text>
<text x="237.5" y="62.5" font-size="12.5" fill="#1F2328">index</text>
<text x="341.875" y="62.5" font-size="12.5" fill="#1F2328">Knob</text>
<text x="446.25" y="62.5" font-size="12.5" fill="#1F2328">Value</text>
<text x="37" y="86.5" font-size="12.5" fill="#1A5FA8">:type</text>
<text x="237.5" y="86.5" font-size="12.5" fill="#1F2328">int</text>
<text x="341.875" y="86.5" font-size="12.5" fill="#1F2328">string</text>
<text x="446.25" y="86.5" font-size="12.5" fill="#1F2328">float</text>
<text x="37" y="110.5" font-size="12.5" fill="#1A5FA8">:desc</text>
<text x="237.5" y="110.5" font-size="12.5" fill="#1F2328">primary index</text>
<text x="341.875" y="110.5" font-size="12.5" fill="#1F2328">what it tunes</text>
<text x="446.25" y="110.5" font-size="12.5" fill="#1F2328">how much</text>
<text x="37" y="134.5" font-size="12.5" fill="#1A5FA8">:target</text>
<text x="237.5" y="134.5" font-size="12.5" fill="#1F2328">cs</text>
<text x="341.875" y="134.5" font-size="12.5" fill="#1F2328">cs</text>
<text x="446.25" y="134.5" font-size="12.5" fill="#1F2328">cs</text>
<text x="237.5" y="158.5" font-size="12.5" fill="#1F2328">1</text>
<text x="341.875" y="158.5" font-size="12.5" fill="#1F2328">drop_rate</text>
<text x="446.25" y="158.5" font-size="12.5" fill="#1F2328">0.25</text>
<text x="237.5" y="182.5" font-size="12.5" fill="#1F2328">2</text>
<text x="341.875" y="182.5" font-size="12.5" fill="#1F2328">gold_rate</text>
<text x="446.25" y="182.5" font-size="12.5" fill="#1F2328">1.5</text>
<text x="237.5" y="206.5" font-size="12.5" fill="#1F2328">3</text>
<text x="341.875" y="206.5" font-size="12.5" fill="#1F2328">spawn_rate</text>
<text x="446.25" y="206.5" font-size="12.5" fill="#1F2328">0.8</text>
<text x="557.0" y="38.0" font-size="11" fill="#8A929B" font-style="italic">◀ 선언 셀의 괄호에 side=s</text>
</svg>