<svg xmlns="http://www.w3.org/2000/svg" width="645" height="126" viewBox="0 0 645 126" font-family="Consolas, 'Cascadia Mono', 'Malgun Gothic', monospace">
<title>이름이 부딪히는 유일한 거절</title>
<rect x="0" y="0" width="381.75" height="118" fill="#FFFFFF"/>
<rect x="0" y="0" width="380.75" height="22" fill="#E9ECEF"/>
<rect x="0" y="0" width="30" height="118" fill="#E9ECEF"/>
<rect x="30" y="22" width="350.75" height="24" fill="#E3EDF8"/>
<rect x="30" y="46" width="350.75" height="24" fill="#F1F6FB"/>
<rect x="30" y="70" width="350.75" height="24" fill="#F1F6FB"/>
<rect x="267.25" y="46" width="113.5" height="24" fill="#FBEAE8"/>
<line x1="30" y1="22" x2="30" y2="118" stroke="#D8DDE2" stroke-width="1"/>
<line x1="119.75" y1="22" x2="119.75" y2="118" stroke="#D8DDE2" stroke-width="1"/>
<line x1="171.75" y1="22" x2="171.75" y2="118" stroke="#D8DDE2" stroke-width="1"/>
<line x1="267.25" y1="22" x2="267.25" y2="118" stroke="#D8DDE2" stroke-width="1"/>
<line x1="380.75" y1="22" x2="380.75" y2="118" stroke="#D8DDE2" stroke-width="1"/>
<line x1="30" y1="22" x2="380.75" y2="22" stroke="#D8DDE2" stroke-width="1"/>
<line x1="30" y1="46" x2="380.75" y2="46" stroke="#D8DDE2" stroke-width="1"/>
<line x1="30" y1="70" x2="380.75" y2="70" stroke="#D8DDE2" stroke-width="1"/>
<line x1="30" y1="94" x2="380.75" y2="94" stroke="#D8DDE2" stroke-width="1"/>
<line x1="30" y1="118" x2="380.75" y2="118" stroke="#D8DDE2" stroke-width="1"/>
<line x1="0" y1="22" x2="380.75" y2="22" stroke="#BFC6CC" stroke-width="1"/>
<line x1="30" y1="0" x2="30" y2="118" stroke="#BFC6CC" stroke-width="1"/>
<line x1="119.75" y1="0" x2="119.75" y2="22" stroke="#BFC6CC" stroke-width="1"/>
<line x1="171.75" y1="0" x2="171.75" y2="22" stroke="#BFC6CC" stroke-width="1"/>
<line x1="267.25" y1="0" x2="267.25" y2="22" stroke="#BFC6CC" stroke-width="1"/>
<line x1="380.75" y1="0" x2="380.75" y2="22" stroke="#BFC6CC" stroke-width="1"/>
<line x1="0" y1="46" x2="30" y2="46" stroke="#BFC6CC" stroke-width="1"/>
<line x1="0" y1="70" x2="30" y2="70" stroke="#BFC6CC" stroke-width="1"/>
<line x1="0" y1="94" x2="30" y2="94" stroke="#BFC6CC" stroke-width="1"/>
<line x1="0" y1="118" x2="30" y2="118" stroke="#BFC6CC" stroke-width="1"/>
<rect x="0.5" y="0.5" width="380.25" height="117.5" fill="none" stroke="#BFC6CC" stroke-width="1"/>
<rect x="268.0" y="46.75" width="112.0" height="22.5" fill="none" stroke="#D64541" stroke-width="1.5"/>
<text x="74.9" y="14.8" font-size="10.5" fill="#5B6570" text-anchor="middle">A</text>
<text x="145.8" y="14.8" font-size="10.5" fill="#5B6570" text-anchor="middle">B</text>
<text x="219.5" y="14.8" font-size="10.5" fill="#5B6570" text-anchor="middle">C</text>
<text x="324.0" y="14.8" font-size="10.5" fill="#5B6570" text-anchor="middle">D</text>
<text x="15.0" y="37.8" font-size="10.5" fill="#5B6570" text-anchor="middle">1</text>
<text x="15.0" y="61.8" font-size="10.5" fill="#5B6570" text-anchor="middle">2</text>
<text x="15.0" y="85.8" font-size="10.5" fill="#5B6570" text-anchor="middle">3</text>
<text x="15.0" y="109.8" font-size="10.5" fill="#5B6570" text-anchor="middle">4</text>
<text x="37" y="38.5" font-size="12.5" fill="#1A5FA8" font-weight="bold">:table Post</text>
<text x="126.75" y="38.5" font-size="12.5" fill="#1F2328">생성될 이름을 컬럼이 이미 쓰고 있습니다.</text>
<text x="37" y="62.5" font-size="12.5" fill="#1A5FA8">:field</text>
<text x="126.75" y="62.5" font-size="12.5" fill="#1F2328">id</text>
<text x="178.75" y="62.5" font-size="12.5" fill="#1F2328">mailId</text>
<text x="274.25" y="62.5" font-size="12.5" fill="#B03A2E">mailByMailId</text>
<text x="37" y="86.5" font-size="12.5" fill="#1A5FA8">:type</text>
<text x="126.75" y="86.5" font-size="12.5" fill="#1F2328">int</text>
<text x="178.75" y="86.5" font-size="12.5" fill="#1F2328">foreign Mail</text>
<text x="274.25" y="86.5" font-size="12.5" fill="#1F2328">string</text>
<text x="126.75" y="110.5" font-size="12.5" fill="#1F2328">1</text>
<text x="178.75" y="110.5" font-size="12.5" fill="#1F2328">5001</text>
<text x="274.25" y="110.5" font-size="12.5" fill="#1F2328">메모</text>
<text x="390.75" y="62.0" font-size="11" fill="#B03A2E" font-style="italic">◀ ✗ mailId가 낼 이름과 같습니다 — 거부</text>
</svg>